HIERARCHY
ROOT wineglass3
{
	OFFSET 0.000000 0.000000 0.000000
	CHANNELS 6 Xposition Yposition Zposition Yrotation Xrotation Zrotation
	End Site
	{
		OFFSET 0.000000 0.000000 0.000000
	}
}
MOTION
Frames: 118
Frame Time: 0.00862069
2.857277 5.255579 2.998606 -168.159600 19.564570 26.868850 
2.870574 5.251112 3.001675 -169.227800 20.026520 27.310150 
2.884927 5.244945 3.007390 -170.389600 20.434000 28.066540 
2.899915 5.236725 3.013316 -171.496000 20.945250 28.586650 
2.913958 5.227321 3.019992 -172.738100 21.408470 29.416940 
2.927014 5.217106 3.027198 -173.876200 21.675420 30.044020 
2.938821 5.207546 3.033640 -175.139400 22.058030 30.479850 
2.948955 5.198676 3.040128 -176.342500 22.293350 30.811430 
2.957112 5.189754 3.046850 -177.441100 22.468480 31.038600 
2.962749 5.182685 3.053087 -178.625400 22.457360 31.226570 
2.966012 5.175771 3.058821 -179.564100 22.343660 31.059010 
2.965392 5.169138 3.062859 179.671600 22.029010 30.899650 
2.962993 5.163927 3.063728 179.454200 22.102060 30.462680 
2.958774 5.158206 3.063851 179.292000 22.255310 29.933400 
2.953366 5.152557 3.062027 179.205500 22.357220 29.769110 
2.947359 5.147137 3.060156 179.214100 22.788360 29.225000 
2.942158 5.142711 3.059518 179.201300 23.238170 28.798830 
2.935413 5.139257 3.059986 179.086400 23.535590 28.269510 
2.928969 5.138146 3.062720 178.871900 24.044800 27.648240 
2.921744 5.137760 3.068462 178.477400 24.158890 26.845530 
2.914347 5.138735 3.075101 178.021700 24.422620 26.026060 
2.907401 5.140192 3.082711 177.483400 24.416100 25.275790 
2.901479 5.142495 3.090754 177.062100 24.780150 24.542460 
2.896747 5.144492 3.097335 176.387700 24.808670 23.881360 
2.894012 5.146216 3.104334 175.938800 24.957660 23.602700 
2.894877 5.147861 3.111133 175.565800 24.997520 23.493120 
2.899202 5.149421 3.118181 175.333000 25.172170 23.811430 
2.904583 5.148288 3.125194 175.049300 24.899750 24.529680 
2.911330 5.147164 3.131592 174.794800 24.604060 25.230550 
2.918195 5.145800 3.137504 174.623000 24.482020 26.069340 
2.923088 5.145179 3.141216 174.351300 23.971280 26.732640 
2.926144 5.145792 3.143831 174.047200 23.744180 26.977210 
2.926902 5.145960 3.144724 173.542500 23.562390 26.787750 
2.926552 5.146026 3.143558 173.067700 23.660670 26.255650 
2.923682 5.145511 3.140846 172.414100 23.704340 25.695830 
2.919164 5.143468 3.138146 171.624900 23.220410 25.474340 
2.915767 5.143671 3.136399 171.163300 23.466060 24.592060 
2.912164 5.143987 3.134649 170.764700 23.177230 24.345310 
2.908802 5.144120 3.133045 170.347500 23.029150 24.234620 
2.907383 5.144748 3.130753 170.019600 23.196800 24.001970 
2.907429 5.144765 3.127467 169.669600 23.254920 23.994010 
2.907796 5.144534 3.123234 169.381500 23.552670 24.061760 
2.908491 5.144469 3.117051 169.045000 24.050320 24.183590 
2.909457 5.143906 3.111480 168.824700 24.583980 24.486010 
2.911606 5.142996 3.102837 168.655300 25.329040 24.792180 
2.913030 5.142778 3.094532 168.474600 26.245600 24.881420 
2.914728 5.141711 3.086010 168.348800 27.081610 25.334400 
2.916358 5.141301 3.075663 168.151400 28.093460 25.427640 
2.916062 5.139558 3.068447 167.791400 28.616080 25.881030 
2.916278 5.139475 3.060567 167.782200 29.441640 25.827990 
2.913319 5.140383 3.055442 167.435600 29.965980 25.759850 
2.909746 5.141406 3.051048 167.064300 30.405170 25.674050 
2.906572 5.141753 3.045804 166.724300 30.931240 25.349240 
2.902896 5.141849 3.040222 166.139800 31.430960 25.039560 
2.900271 5.141687 3.032108 165.634700 32.178600 24.716260 
2.898119 5.140889 3.025043 165.037500 32.873520 24.335020 
2.897209 5.139110 3.016662 164.421000 33.539600 24.215600 
2.897575 5.138068 3.007321 163.846600 34.397250 23.833160 
2.897341 5.135943 2.998082 163.438300 35.003910 23.686630 
2.898679 5.133166 2.988399 163.238600 35.730350 23.722050 
2.900298 5.129606 2.976826 163.059600 36.612920 23.598870 
2.901767 5.125234 2.965584 163.032200 37.589770 23.423360 
2.903262 5.119382 2.952187 163.213600 38.472900 23.597000 
2.904767 5.113986 2.939171 163.594700 39.444500 23.498390 
2.905361 5.107699 2.926548 164.027300 40.441810 23.426690 
2.904532 5.101871 2.915381 164.255000 41.379560 23.178600 
2.902595 5.097265 2.905271 164.538300 42.050560 22.938800 
2.900353 5.093685 2.898497 164.872700 42.624180 22.663250 
2.897717 5.091203 2.893892 165.078200 42.918320 22.268310 
2.895389 5.089213 2.892476 165.102400 43.037350 21.764580 
2.892379 5.088008 2.893507 165.168300 42.917040 21.361900 
2.889616 5.086931 2.895355 165.112500 42.663250 20.853400 
2.886197 5.085570 2.897674 164.792200 42.250880 20.516770 
2.883594 5.084158 2.899967 164.476700 41.881590 19.834200 
2.881366 5.082559 2.902988 164.156800 41.490830 19.455310 
2.879736 5.080963 2.905368 164.016300 41.334660 18.893290 
2.878344 5.078451 2.907001 163.730000 41.090090 18.675790 
2.878816 5.076041 2.908479 163.650800 41.081170 18.310470 
2.878648 5.072837 2.910210 163.346500 40.855930 18.139590 
2.880048 5.069488 2.912613 163.260700 40.777930 18.187270 
2.881095 5.067608 2.914853 163.104400 40.672740 18.018110 
2.883151 5.065352 2.916404 162.995700 40.739240 17.939540 
2.885584 5.063319 2.917375 162.816000 40.760620 17.754810 
2.887773 5.062092 2.918829 162.533600 40.902210 17.447970 
2.890802 5.061266 2.920527 162.242000 40.814810 17.297250 
2.893600 5.061537 2.922825 161.656400 40.737170 16.936350 
2.897678 5.062656 2.926413 160.784900 40.608200 16.439510 
2.900896 5.064482 2.931881 159.772400 40.414940 16.008020 
2.904744 5.068163 2.939022 158.181900 40.211170 15.084720 
2.908899 5.071299 2.947926 156.413300 39.753600 14.486550 
2.914911 5.075470 2.957836 154.516600 39.399020 13.465880 
2.921215 5.079607 2.968492 152.303800 38.852120 12.649350 
2.928483 5.083425 2.978703 150.164000 38.489190 11.749350 
2.937339 5.086113 2.986324 148.298000 38.190520 11.147530 
2.947829 5.087439 2.992613 146.719300 37.953300 10.539610 
2.958524 5.087159 2.997321 145.314600 37.782830 10.181750 
2.969146 5.086982 3.001760 143.911400 37.707260 9.918715 
2.979148 5.086878 3.006999 142.529000 37.653760 9.392308 
2.989726 5.086608 3.012560 141.173100 37.625120 9.037487 
2.999028 5.087134 3.018929 139.669200 37.566370 8.567355 
3.008445 5.087407 3.025494 138.105200 37.788380 7.877101 
3.019706 5.087269 3.032688 136.488400 38.036480 7.338196 
3.030759 5.086138 3.038817 135.055000 38.373590 6.756728 
3.042548 5.085142 3.045368 133.583500 38.819280 6.073679 
3.053642 5.084020 3.051794 132.169900 39.130810 5.248350 
3.065215 5.083205 3.059496 130.612900 39.504150 4.582380 
3.076655 5.084143 3.067641 128.913000 39.621780 3.613120 
3.087337 5.085332 3.076303 127.132600 39.752140 2.517373 
3.096992 5.086623 3.083980 125.435200 39.780730 1.479874 
3.104325 5.088762 3.091667 123.934600 39.936130 0.725889 
3.111584 5.092762 3.096499 122.829800 39.390990 -0.340027 
3.116475 5.097664 3.101786 122.068200 39.094620 -0.842896 
3.120569 5.102658 3.106682 121.491500 39.003250 -1.083801 
3.127357 5.108132 3.110142 121.205000 38.815320 -1.531250 
3.133799 5.112190 3.114839 121.024100 39.085640 -1.418121 
3.142791 5.116928 3.118874 121.015000 39.492310 -0.989868 
3.152603 5.121420 3.122337 121.216200 39.892290 -0.414368 
3.163062 5.126747 3.125273 121.451500 40.496370 -0.030182 
